<svg width="50" height="50" viewBox="0 0 50 50" fill="none" xmlns="http://www.w3.org/2000/svg">
<mask id="mask0_1_10840" style="mask-type:luminance" maskUnits="userSpaceOnUse" x="2" y="2" width="46" height="46">
<path d="M2.5 2.5H47.4984V47.4984H2.5V2.5Z" fill="white"/>
</mask>
<g mask="url(#mask0_1_10840)">
<path d="M47.499 24.9995C47.499 37.4255 37.4255 47.499 24.9995 47.499C12.5734 47.499 2.5 37.4255 2.5 24.9995C2.5 12.5734 12.5734 2.5 24.9995 2.5C37.4255 2.5 47.499 12.5734 47.499 24.9995Z" fill="#ED642A"/>
</g>
<path d="M43.6541 24.9984C43.6541 35.3 35.301 43.6531 24.9994 43.6531C20.776 43.6531 16.8822 42.2521 13.7583 39.8849C13.1005 39.3865 12.4765 38.8458 11.89 38.2677C11.3744 37.7604 10.8874 37.2224 10.4374 36.6552C8.95358 34.8073 7.814 32.6682 7.11973 30.3385V30.3328C6.61556 28.6438 6.34473 26.8526 6.34473 24.9984C6.34473 14.6974 14.6979 6.34375 24.9994 6.34375C29.2572 6.34375 33.1817 7.77083 36.3202 10.1719C38.3114 11.6953 39.9859 13.6063 41.2275 15.7964C41.6176 16.4802 41.965 17.1922 42.2671 17.9297C42.6062 18.7526 42.8848 19.6073 43.1041 20.487C43.463 21.9313 43.6541 23.4438 43.6541 24.9984Z" fill="#E56523"/>
<path d="M32.4954 19.6352C32.4954 20.9471 32.098 22.0622 31.3032 22.9815C30.5084 23.9013 29.3928 24.5331 27.9563 24.8779V24.9638C29.6516 25.1747 30.9344 25.6893 31.8058 26.5081C32.6771 27.3263 33.1131 28.4305 33.1131 29.8185C33.1131 31.8398 32.3803 33.4122 30.9152 34.5372C29.4501 35.6628 27.3579 36.2247 24.6386 36.2247C22.3594 36.2247 20.3386 35.8471 18.5771 35.0904V31.3128C19.3907 31.7247 20.286 32.0596 21.2626 32.318C22.2396 32.5768 23.2068 32.706 24.1646 32.706C25.6298 32.706 26.7115 32.457 27.4105 31.9591C28.1094 31.4612 28.4594 30.6617 28.4594 29.5602C28.4594 28.5742 28.0568 27.8747 27.2527 27.4633C26.448 27.0518 25.1652 26.8456 23.4032 26.8456H21.8089V23.4414H23.4318C25.06 23.4414 26.2495 23.2284 27.0011 22.8018C27.7532 22.3763 28.1287 21.6461 28.1287 20.6117C28.1287 19.0227 27.1329 18.2273 25.1412 18.2273C24.4516 18.2273 23.7501 18.3424 23.037 18.5721C22.3235 18.8018 21.5308 19.1997 20.66 19.7643L18.6058 16.7049C20.5209 15.3258 22.8048 14.6367 25.4574 14.6367C27.6308 14.6367 29.3469 15.0768 30.6063 15.9581C31.8657 16.8393 32.4954 18.0643 32.4954 19.6352Z" fill="#B74520"/>
<path d="M31.5579 19.1664C31.5579 20.4789 31.1605 21.594 30.3662 22.5128C29.5709 23.4326 28.4558 24.0643 27.0193 24.4091V24.4951C28.7141 24.706 29.9975 25.2206 30.8688 26.0393C31.7402 26.8581 32.1756 27.9617 32.1756 29.3503C32.1756 31.3711 31.4433 32.9435 29.9782 34.0685C28.5131 35.194 26.4204 35.7565 23.7011 35.7565C21.4219 35.7565 19.4016 35.3784 17.6396 34.6216V30.844C18.4537 31.256 19.349 31.5909 20.3256 31.8497C21.3027 32.1081 22.2699 32.2372 23.2271 32.2372C24.6923 32.2372 25.7745 31.9883 26.4735 31.4904C27.1719 30.9924 27.5219 30.193 27.5219 29.0919C27.5219 28.1055 27.1199 27.4065 26.3152 26.9945C25.511 26.5831 24.2277 26.3768 22.4657 26.3768H20.8714V22.9727H22.4943C24.1225 22.9727 25.312 22.7596 26.0641 22.3336C26.8157 21.9076 27.1917 21.1773 27.1917 20.143C27.1917 18.5539 26.1959 17.7586 24.2042 17.7586C23.5146 17.7586 22.8131 17.8737 22.0995 18.1034C21.386 18.3331 20.5933 18.731 19.7225 19.2956L17.6683 16.2362C19.5834 14.8576 21.8673 14.168 24.5199 14.168C26.6938 14.168 28.41 14.6081 29.6693 15.4893C30.9287 16.3706 31.5579 17.5961 31.5579 19.1664Z" fill="#D14F1C"/>
<path d="M10.4378 36.6552C8.95397 34.8073 7.81439 32.6682 7.12012 30.3385V30.3328L24.6212 18.2495C24.7956 18.2349 24.9691 18.2276 25.142 18.2276C25.655 18.2276 26.1024 18.2802 26.4831 18.3859C26.9561 18.7833 27.1925 19.3688 27.1925 20.1432C27.1925 21.1776 26.8165 21.9078 26.0649 22.3339C25.3128 22.7599 24.1232 22.9729 22.4951 22.9729H20.8722V26.3771H21.8097V26.8458H23.404C23.9238 26.8458 24.4019 26.8635 24.8383 26.9L18.4592 31.2214C18.1779 31.1036 17.9045 30.9781 17.6404 30.8443V31.776L10.4378 36.6552ZM31.9066 22.1109C32.2998 21.3828 32.4962 20.5578 32.4962 19.6354C32.4962 18.0646 31.8665 16.8396 30.6071 15.9583C30.2331 15.6964 29.8191 15.474 29.3644 15.2896C29.2831 15.2401 29.2003 15.1922 29.116 15.1458L36.3206 10.1719C38.3118 11.6953 39.9863 13.6063 41.2279 15.7964L31.9066 22.1109Z" fill="#E77E48"/>
<path d="M24.8382 26.9014C24.4018 26.865 23.9236 26.8473 23.4038 26.8473H21.8096V26.3785H22.4663C23.5846 26.3785 24.5096 26.4618 25.2424 26.6275L24.8382 26.9014ZM28.107 24.6868C27.7658 24.6077 27.4033 24.5447 27.02 24.4967V24.4108C28.4564 24.066 29.5715 23.4342 30.3669 22.5145C31.1611 21.5957 31.5585 20.4806 31.5585 19.1681C31.5585 17.5978 30.9294 16.3723 29.67 15.491C29.571 15.4217 29.4689 15.3551 29.3643 15.291C29.8189 15.4754 30.233 15.6978 30.607 15.9598C31.8663 16.841 32.496 18.066 32.496 19.6368C32.496 20.5592 32.2997 21.3842 31.9064 22.1124L28.107 24.6868ZM26.483 18.3874C26.1023 18.2816 25.6549 18.229 25.1419 18.229C24.9689 18.229 24.7955 18.2363 24.621 18.2509L25.2117 17.8426C25.7419 17.9395 26.1653 18.1212 26.483 18.3874Z" fill="#C26446"/>
<path d="M17.6396 31.7767V30.8449C17.9037 30.9788 18.1771 31.1043 18.4584 31.222L17.6396 31.7767ZM25.2417 26.6267C24.5089 26.4611 23.5839 26.3777 22.4657 26.3777H20.8714V22.9736H22.4943C24.1225 22.9736 25.312 22.7605 26.0641 22.3345C26.8157 21.9085 27.1917 21.1783 27.1917 20.1439C27.1917 19.3694 26.9553 18.784 26.4824 18.3866C26.1646 18.1204 25.7412 17.9387 25.211 17.8418L29.1152 15.1465C29.1995 15.1928 29.2824 15.2408 29.3636 15.2902C29.4683 15.3543 29.5704 15.421 29.6693 15.4902C30.9287 16.3715 31.5579 17.597 31.5579 19.1673C31.5579 20.4798 31.1605 21.5949 30.3662 22.5137C29.5709 23.4335 28.4558 24.0652 27.0193 24.41V24.496C27.4027 24.5439 27.7652 24.6069 28.1063 24.6861L25.2417 26.6267Z" fill="#D76C43"/>
<path d="M13.7579 39.8849C13.1001 39.3865 12.4761 38.8458 11.8896 38.2677L17.6396 34.4177V34.6219C17.9443 34.7526 18.2568 34.8724 18.5771 34.9802V35.0906C19.0844 35.3089 19.6136 35.4953 20.1646 35.6505L13.7579 39.8849ZM23.2271 32.2375C22.5511 32.2375 21.8704 32.1734 21.1844 32.0443L27.2891 27.9573C27.4443 28.2802 27.5219 28.6583 27.5219 29.0922C27.5219 30.1333 27.2089 30.9057 26.5839 31.4073L26.1891 31.6677C25.4938 32.0479 24.5068 32.2375 23.2271 32.2375ZM32.5542 27.4609C32.3568 27.1094 32.1074 26.7917 31.8058 26.5083C31.4766 26.1995 31.0896 25.9339 30.6438 25.7115L42.2667 17.9297C42.6058 18.7526 42.8844 19.6073 43.1037 20.487L32.5542 27.4609Z" fill="#E77E48"/>
<path d="M20.1646 35.652C19.6136 35.4967 19.0844 35.3103 18.5771 35.0921V34.9816C19.1719 35.1832 19.7938 35.3452 20.4423 35.4681L20.1646 35.652ZM31.9735 27.8457C31.7657 27.1395 31.3969 26.5379 30.8688 26.041C30.7693 25.9478 30.6646 25.8582 30.5542 25.7728L30.6438 25.7129C31.0897 25.9353 31.4766 26.2009 31.8058 26.5098C32.1074 26.7931 32.3568 27.1108 32.5542 27.4624L31.9735 27.8457Z" fill="#C26446"/>
<path d="M20.4423 35.4668C19.7938 35.3439 19.1719 35.1819 18.5771 34.9803C18.2568 34.8725 17.9443 34.7527 17.6396 34.622V34.4178L21.1844 32.0444C21.8704 32.1736 22.5511 32.2376 23.2271 32.2376C24.5068 32.2376 25.4938 32.048 26.1891 31.6678L20.4423 35.4668ZM26.5839 31.4074C27.2089 30.9059 27.5219 30.1335 27.5219 29.0923C27.5219 28.6585 27.4443 28.2803 27.2891 27.9574L30.5542 25.7715C30.6646 25.8569 30.7693 25.9465 30.8688 26.0397C31.3969 26.5366 31.7657 27.1382 31.9735 27.8444L26.5839 31.4074Z" fill="#D76C43"/>
<path d="M39.9885 13.9203C36.5766 10.1839 31.6667 7.83958 26.2099 7.83958C15.9083 7.83958 7.55521 16.1927 7.55521 26.4943C7.55521 30.6094 8.88802 34.4172 11.1495 37.5021C8.11927 34.1839 6.27344 29.7693 6.27344 24.9281C6.27344 14.6266 14.6271 6.27344 24.9281 6.27344C31.1115 6.27344 36.5938 9.28385 39.9885 13.9203Z" fill="#D95B23"/>
</svg>
