<svg width="50" height="50" viewBox="0 0 50 50" fill="none" xmlns="http://www.w3.org/2000/svg">
<mask id="mask0_1_10802" style="mask-type:luminance" maskUnits="userSpaceOnUse" x="2" y="2" width="46" height="46">
<path d="M2.5 2.5H47.4984V47.4984H2.5V2.5Z" fill="white"/>
</mask>
<g mask="url(#mask0_1_10802)">
<path d="M47.499 24.9995C47.499 37.4255 37.4255 47.499 24.9995 47.499C12.5734 47.499 2.5 37.4255 2.5 24.9995C2.5 12.5734 12.5734 2.5 24.9995 2.5C37.4255 2.5 47.499 12.5734 47.499 24.9995Z" fill="#FFDA56"/>
</g>
<path d="M43.6538 24.9091C43.7033 35.2101 35.3897 43.6033 25.0887 43.6528C20.8653 43.6731 16.9653 42.2908 13.8298 39.9393C13.1694 39.444 12.5434 38.9054 11.9538 38.3304C11.4356 37.8257 10.946 37.2898 10.4934 36.7252C9.00068 34.8841 7.8512 32.7507 7.14547 30.4247V30.419C6.63297 28.7325 6.3538 26.9424 6.34495 25.0882C6.29547 14.7872 14.6085 6.39397 24.9095 6.34397C29.1673 6.32365 33.0986 7.73147 36.2486 10.1174C38.247 11.632 39.9309 13.5346 41.183 15.719C41.5767 16.4007 41.9272 17.1112 42.2324 17.8471C42.5757 18.6684 42.859 19.5216 43.0819 20.4002C43.4481 21.8429 43.6465 23.3539 43.6538 24.9091Z" fill="#FEC431"/>
<path d="M18.9473 17.8072L19.5171 22.6488L23.2197 21.5098V36.604H28.6306V15.2441L18.9473 17.8072Z" fill="#F29B00"/>
<path d="M18.3408 17.2701L18.9335 22.1091L22.6309 20.9523L22.7028 36.0466L28.1143 36.0206L28.0117 14.6602L18.3408 17.2701Z" fill="#F8A800"/>
<path d="M10.4378 36.6564C8.95397 34.8085 7.81439 32.6694 7.12012 30.3397V30.334C7.12845 30.3626 7.1373 30.3913 7.14616 30.4199V30.4257C7.84303 32.7225 8.97272 34.8314 10.4378 36.6564Z" fill="#FDDE72"/>
<path d="M10.4378 36.6551C8.97272 34.8301 7.84303 32.7212 7.14616 30.4243V30.4186C7.1373 30.39 7.12845 30.3613 7.12012 30.3327L19.1133 22.052L19.4352 21.9514L19.5175 22.6488L22.6342 21.6895L22.6665 28.3707L10.4378 36.6551Z" fill="#FCCC54"/>
<path d="M19.5169 22.6486L19.4346 21.9512L22.6304 20.9512L22.6335 21.6892L19.5169 22.6486Z" fill="#F2AB2C"/>
<path d="M28.6309 24.3302V15.4807L36.3204 10.1719C38.3116 11.6953 39.9861 13.6063 41.2277 15.7964L28.6309 24.3302Z" fill="#FCCC54"/>
<path d="M28.0598 24.7169L28.0176 15.9039L28.6306 15.4805V24.3299L28.0598 24.7169Z" fill="#F2AB2C"/>
<path d="M22.6664 28.371L22.6341 21.6897L22.631 20.9517L19.4352 21.9517L19.1133 22.0522L28.018 15.9043L28.0602 24.7173L22.6664 28.371Z" fill="#F7B52C"/>
<path d="M13.7579 39.8848C13.1001 39.3863 12.4761 38.8457 11.8896 38.2676C11.9105 38.2884 11.9324 38.3092 11.9537 38.3301C12.5219 38.8848 13.124 39.4046 13.7584 39.8848H13.7579Z" fill="#FDDE72"/>
<path d="M13.7584 39.8849C13.124 39.4047 12.5219 38.8849 11.9537 38.3302C11.9324 38.3094 11.9105 38.2885 11.8896 38.2677L22.6787 31.0443L22.6928 33.9792L13.7584 39.8849ZM28.6303 30.0542V27.0594L42.2667 17.9297C42.6058 18.7526 42.8844 19.6073 43.1037 20.487L28.6303 30.0542Z" fill="#FCCC54"/>
<path d="M28.0878 30.4147L28.0732 27.434L28.6311 27.0605V30.0553L28.0878 30.4147Z" fill="#F2AB2C"/>
<path d="M22.6928 33.9799L22.6787 31.0451L28.0725 27.4336L28.087 30.4143L22.6928 33.9799Z" fill="#F7B52C"/>
<path d="M39.9356 13.8481C36.506 10.1283 31.5846 7.80803 26.1278 7.83407C15.8268 7.88355 7.51324 16.2768 7.56324 26.5778C7.58303 30.6935 8.93407 34.4945 11.2101 37.5685C8.16376 34.2648 6.29709 29.8596 6.27366 25.0179C6.22418 14.7169 14.5377 6.32314 24.8388 6.27366C31.0216 6.24397 36.5184 9.22834 39.9356 13.8481Z" fill="#F8A800"/>
</svg>
