<svg width="50" height="50" viewBox="0 0 50 50" fill="none" xmlns="http://www.w3.org/2000/svg">
<mask id="mask0_1_10822" style="mask-type:luminance" maskUnits="userSpaceOnUse" x="2" y="2" width="46" height="46">
<path d="M2.5 2.5H47.4984V47.4984H2.5V2.5Z" fill="white"/>
</mask>
<g mask="url(#mask0_1_10822)">
<path d="M47.499 24.9995C47.499 37.4255 37.4255 47.499 24.9995 47.499C12.5734 47.499 2.5 37.4255 2.5 24.9995C2.5 12.5734 12.5734 2.5 24.9995 2.5C37.4255 2.5 47.499 12.5734 47.499 24.9995Z" fill="#D6D2C9"/>
</g>
<path d="M43.6541 24.9984C43.6541 35.3 35.301 43.6531 24.9994 43.6531C20.776 43.6531 16.8822 42.2521 13.7583 39.8849C13.1005 39.3865 12.4765 38.8458 11.89 38.2677C11.3744 37.7604 10.8874 37.2224 10.4374 36.6552C8.95358 34.8073 7.814 32.6682 7.11973 30.3385V30.3328C6.61556 28.6438 6.34473 26.8526 6.34473 24.9984C6.34473 14.6974 14.6979 6.34375 24.9994 6.34375C29.2572 6.34375 33.1817 7.77083 36.3202 10.1719C38.3114 11.6953 39.9859 13.6063 41.2275 15.7964C41.6176 16.4802 41.965 17.1922 42.2671 17.9297C42.6062 18.7526 42.8848 19.6073 43.1041 20.487C43.463 21.9313 43.6541 23.4438 43.6541 24.9984Z" fill="#B7B7B6"/>
<path d="M11.1495 37.5021C8.11927 34.1839 6.27344 29.7693 6.27344 24.9281C6.27344 14.6266 14.6271 6.27344 24.9281 6.27344C30.0672 6.27344 34.7224 8.3526 38.0974 11.7177C37.5385 11.1667 36.9448 10.6505 36.3203 10.1724C33.1818 7.77135 29.2573 6.34427 24.9995 6.34427C14.6979 6.34427 6.34479 14.6979 6.34479 24.999C6.34479 26.8531 6.61562 28.6443 7.11979 30.3333V30.3391C7.81406 32.6688 8.95365 34.8078 10.4375 36.6557C10.6583 36.9344 10.8885 37.2057 11.126 37.4698C11.1339 37.4807 11.1417 37.4917 11.1495 37.5021Z" fill="#9A9D9D"/>
<path d="M11.126 37.4693C10.8885 37.2052 10.6583 36.9339 10.4374 36.6552L10.526 36.5958C10.7176 36.8932 10.9182 37.1844 11.126 37.4693ZM7.11973 30.3328C6.61556 28.6437 6.34473 26.8526 6.34473 24.9984C6.34473 14.6974 14.6979 6.34375 24.9994 6.34375C29.2572 6.34375 33.1817 7.77083 36.3202 10.1719L35.8312 10.5094C33.0218 8.81458 29.7296 7.83906 26.2098 7.83906C15.9083 7.83906 7.55514 16.1922 7.55514 26.4937C7.55514 27.6312 7.65723 28.7453 7.85202 29.8271L7.11973 30.3328Z" fill="#919597"/>
<path d="M32.6388 36.1945H18.3799V33.1945L23.5003 28.0185C25.0164 26.4654 26.007 25.3883 26.4721 24.7888C26.9372 24.1888 27.2721 23.6331 27.4768 23.1216C27.681 22.6102 27.7836 22.0799 27.7836 21.531C27.7836 20.7128 27.5576 20.1034 27.107 19.7034C26.6555 19.3034 26.0534 19.1034 25.3003 19.1034C24.5091 19.1034 23.7419 19.2846 22.9977 19.6477C22.2539 20.0102 21.4773 20.5268 20.668 21.1961L18.3242 18.4195C19.3284 17.5638 20.1607 16.9596 20.8216 16.6055C21.482 16.2529 22.2029 15.9805 22.9841 15.7898C23.7654 15.5992 24.6393 15.5039 25.607 15.5039C26.881 15.5039 28.007 15.7362 28.9836 16.2013C29.9602 16.6664 30.718 17.3174 31.2576 18.1549C31.7966 18.9914 32.0669 19.9497 32.0669 21.0289C32.0669 21.9685 31.9013 22.8492 31.5711 23.6721C31.2409 24.4961 30.7294 25.3398 30.0367 26.2049C29.3435 27.0701 28.1232 28.3023 26.3742 29.9023L23.7513 32.3716V32.5669H32.6388V36.1945Z" fill="#676968"/>
<path d="M32.1701 35.7258H17.9112V32.7263L23.0315 27.5497C24.5477 25.9971 25.5383 24.9201 26.0034 24.3201C26.4685 23.7206 26.8034 23.1643 27.0081 22.6529C27.2122 22.1414 27.3148 21.6112 27.3148 21.0628C27.3148 20.244 27.0893 19.6346 26.6383 19.2346C26.1872 18.8346 25.5852 18.6346 24.8315 18.6346C24.0409 18.6346 23.2737 18.8164 22.5294 19.1789C21.7852 19.5414 21.0086 20.0581 20.1997 20.7273L17.8555 17.9513C18.8596 17.0956 19.6924 16.4909 20.3529 16.1372C21.0133 15.7841 21.7341 15.5122 22.5154 15.3211C23.2971 15.1305 24.1711 15.0352 25.1383 15.0352C26.4128 15.0352 27.5383 15.268 28.5148 15.7326C29.4914 16.1977 30.2492 16.8487 30.7888 17.6862C31.3284 18.5232 31.5982 19.481 31.5982 20.5602C31.5982 21.4997 31.4331 22.3805 31.1029 23.2039C30.7727 24.0273 30.2612 24.8711 29.568 25.7362C28.8753 26.6013 27.6544 27.8336 25.9055 29.4336L23.2831 31.9029V32.0982H32.1701V35.7258Z" fill="#81878B"/>
<path d="M10.5265 36.5962C9.22025 34.5754 8.29629 32.2842 7.85254 29.8275L20.552 21.0592L20.6682 21.1967C21.4775 20.5275 22.2541 20.0108 22.9979 19.6483C23.7421 19.2853 24.5093 19.104 25.3005 19.104C25.9557 19.104 26.4968 19.2556 26.9228 19.5577C27.1843 19.9384 27.315 20.44 27.315 21.0634C27.315 21.6118 27.2124 22.1421 27.0083 22.6535C26.8036 23.165 26.4687 23.7212 26.0036 24.3207C25.5385 24.9207 24.5478 25.9978 23.0317 27.5504L21.3119 29.2895L10.5265 36.5962ZM31.9989 22.0493C32.0442 21.7171 32.0671 21.3775 32.0671 21.0296C32.0671 19.9504 31.7968 18.9921 31.2577 18.1556C30.9989 17.754 30.69 17.3952 30.3312 17.0796C29.8463 16.528 29.2411 16.0796 28.515 15.7332C28.4656 15.7098 28.4156 15.6868 28.3656 15.6645L35.8317 10.5098C37.3781 11.4426 38.7781 12.5936 39.989 13.9202C39.4161 13.1374 38.7827 12.4004 38.0978 11.7176C39.3197 12.9223 40.3755 14.2936 41.2281 15.7967L31.9989 22.0493Z" fill="#C2C2C1"/>
<path d="M10.4378 36.6552C8.95397 34.8073 7.81439 32.6682 7.12012 30.3385V30.3328L7.85241 29.8271C8.29616 32.2839 9.22012 34.575 10.5264 36.5958L10.4378 36.6552ZM39.9889 13.9198C38.7779 12.5932 37.3779 11.4422 35.8316 10.5094L36.3206 10.1719C36.9451 10.65 37.5389 11.1661 38.0977 11.7172C38.7826 12.4 39.416 13.137 39.9889 13.9198Z" fill="#A2A6A7"/>
<path d="M31.3429 22.4941C31.5127 21.8796 31.5981 21.2358 31.5981 20.5613C31.5981 19.4822 31.3283 18.5243 30.7887 17.6874C30.6507 17.4728 30.4976 17.2702 30.3309 17.0801C30.6898 17.3957 30.9986 17.7546 31.2575 18.1561C31.7965 18.9926 32.0669 19.9509 32.0669 21.0301C32.0669 21.378 32.0439 21.7176 31.9986 22.0499L31.3429 22.4941ZM20.6679 21.1973L20.5518 21.0598L23.9518 18.7124C24.2419 18.6613 24.5351 18.6358 24.8314 18.6358C25.5851 18.6358 26.1872 18.8358 26.6382 19.2358C26.746 19.3316 26.8408 19.4389 26.9226 19.5582C26.4965 19.2561 25.9554 19.1046 25.3002 19.1046C24.509 19.1046 23.7419 19.2858 22.9976 19.6488C22.2538 20.0113 21.4773 20.528 20.6679 21.1973Z" fill="#808281"/>
<path d="M21.3115 29.2891L23.0313 27.55C24.5475 25.9974 25.5381 24.9203 26.0032 24.3203C26.4683 23.7208 26.8032 23.1646 27.0079 22.6531C27.212 22.1417 27.3146 21.6115 27.3146 21.063C27.3146 20.4396 27.1839 19.938 26.9225 19.5573C26.8407 19.438 26.7459 19.3307 26.6381 19.2349C26.187 18.8349 25.585 18.6349 24.8313 18.6349C24.535 18.6349 24.2417 18.6604 23.9516 18.7115L28.3652 15.6641C28.4152 15.6865 28.4652 15.7094 28.5146 15.7328C29.2407 16.0792 29.8459 16.5276 30.3308 17.0792C30.4975 17.2693 30.6506 17.4719 30.7886 17.6865C31.3282 18.5234 31.598 19.4812 31.598 20.5604C31.598 21.2349 31.5126 21.8786 31.3428 22.4932L21.3115 29.2891Z" fill="#959A9E"/>
<path d="M13.7579 39.8849C13.1001 39.3865 12.4761 38.8458 11.8896 38.2677L17.9105 34.2365V35.726H18.3792V36.1948H19.3407L13.7579 39.8849ZM25.5381 32.0984H24.0412L26.3735 29.9026C28.1225 28.3026 29.3428 27.0703 30.036 26.2052C30.0855 26.1437 30.1334 26.0828 30.1808 26.0214L42.2667 17.9297C42.6058 18.7526 42.8844 19.6073 43.1037 20.487L25.5381 32.0984Z" fill="#C2C2C1"/>
<path d="M19.3413 36.1949H18.3799V35.7262H20.0507L19.3413 36.1949ZM24.0419 32.0986H23.283V31.9033L25.9054 29.434C26.6632 28.7408 27.3216 28.1163 27.8814 27.5616L30.1814 26.0215C30.1341 26.0829 30.0861 26.1439 30.0367 26.2053C29.3434 27.0704 28.1231 28.3027 26.3742 29.9027L24.0419 32.0986Z" fill="#808281"/>
<path d="M20.0507 35.7271H17.9111V34.2375L27.8814 27.5625C27.3215 28.1172 26.6632 28.7417 25.9054 29.4349L23.283 31.9042V32.0995H25.5387L20.0507 35.7271Z" fill="#959A9E"/>
</svg>
